<svg width="330" height="330" viewBox="0 0 330 330" fill="none" xmlns="http://www.w3.org/2000/svg">
<path d="M165 330C256.127 330 330 256.127 330 165C330 73.873 256.127 0 165 0C73.873 0 0 73.873 0 165C0 256.127 73.873 330 165 330Z" fill="#5885A8"/>
<path d="M99.7143 240H78.2857C75.9188 240 74 241.679 74 243.75V266.25C74 268.321 75.9188 270 78.2857 270H99.7143C102.081 270 104 268.321 104 266.25V243.75C104 241.679 102.081 240 99.7143 240Z" fill="white"/>
<path d="M260.714 240H239.286C236.919 240 235 241.679 235 243.75V266.25C235 268.321 236.919 270 239.286 270H260.714C263.081 270 265 268.321 265 266.25V243.75C265 241.679 263.081 240 260.714 240Z" fill="white"/>
<rect x="50" y="94" width="231" height="142" rx="8" fill="white"/>
<rect x="119" y="39" width="143" height="110" rx="12" fill="white" stroke="#5885A8" stroke-width="8"/>
<path d="M202.468 58.1786L165.065 103.179H183.767L165.065 134.679L216.494 85.1786H193.117L202.468 58.1786Z" fill="#5885A8"/>
<rect x="38" y="130" width="8" height="70" rx="4" fill="white"/>
<path d="M104 98H70V102H104V98Z" fill="#5885A8"/>
<path d="M104 106H70V110H104V106Z" fill="#5885A8"/>
<path d="M104 114H70V118H104V114Z" fill="#5885A8"/>
<path d="M104 204H70V208H104V204Z" fill="#5885A8"/>
<path d="M104 212H70V216H104V212Z" fill="#5885A8"/>
<path d="M104 220H70V224H104V220Z" fill="#5885A8"/>
<path d="M104 228H70V232H104V228Z" fill="#5885A8"/>
</svg>
